<svg width="105" height="105" viewBox="0 0 105 105" fill="none" xmlns="http://www.w3.org/2000/svg">
<path d="M85.8108 32.615L83.4685 34.9597L80.2252 31.7132C79.2042 30.6912 77.6426 30.6912 76.6216 31.7132C75.6006 32.7353 75.6006 34.2984 76.6216 35.3204L79.8649 38.5669L77.8829 40.5508L74.6396 37.3044C73.6186 36.2823 72.0571 36.2823 71.036 37.3044C70.015 38.3264 70.015 39.8895 71.036 40.9116L74.2793 44.158L72.2973 46.142L69.0541 42.8955C68.033 41.8735 66.4715 41.8735 65.4505 42.8955C64.4294 43.9175 64.4294 45.4807 65.4505 46.5027L68.6937 49.7492L66.7117 51.7331L63.4685 48.4866C62.4475 47.4646 60.8859 47.4646 59.8649 48.4866C58.8438 49.5087 58.8438 51.0718 59.8649 52.0938L63.1081 55.3403L59.3243 59.1279L45.9309 45.7211L72.4174 19.2083C72.8979 18.7273 73.7988 18.7273 74.2793 19.2083L85.8108 30.7513C86.3514 31.2924 86.3514 32.1341 85.8108 32.615ZM88.5135 26.2423L89.955 24.7994C91.5165 23.2363 91.5165 20.7113 89.955 19.1482L88.994 18.1863L104.55 2.61521C105.15 2.01401 105.15 1.0521 104.55 0.450899C103.949 -0.1503 102.988 -0.1503 102.387 0.450899L86.8318 16.0219L85.8709 15.06C84.3093 13.4969 81.7868 13.4969 80.2252 15.06L78.7838 16.5029L77.8829 15.6011C76.6817 14.3987 75.0601 13.7374 73.3183 13.7374C71.5766 13.7374 69.955 14.3987 68.7538 15.6011L42.2072 42.1741C41.4264 41.5729 40.4655 41.2122 39.4444 41.2122C38.2432 41.2122 37.1021 41.6931 36.2012 42.5348C34.3994 44.3384 34.3994 47.2241 36.2012 48.9676L41.6667 54.4385L8.03304 88.1056L4.36937 84.4383C3.34835 83.4163 1.78679 83.4163 0.765766 84.4383C-0.255255 85.4604 -0.255255 87.0235 0.765766 88.0455L16.8619 104.158C17.3423 104.639 18.003 104.879 18.6637 104.879C19.3243 104.879 19.985 104.639 20.4655 104.158C21.4865 103.136 21.4865 101.572 20.4655 100.55L16.8018 96.8831L50.4354 63.216L55.9009 68.6869C56.8018 69.5887 57.9429 70.0096 59.1441 70.0096C60.2853 70.0096 61.4865 69.5887 62.3874 68.6869C63.2282 67.8452 63.7087 66.703 63.7087 65.4404C63.7087 64.4184 63.3484 63.4565 62.7478 62.6749L79.5646 45.8414L85.1502 40.2502L89.2943 36.102C91.8168 33.5769 91.8168 29.4888 89.2943 27.0239L88.5135 26.2423Z" fill="#133C55"/>
<path d="M90.0148 55.6407C90.0148 51.3121 88.8136 46.5025 87.6124 42.5947L79.5643 51.3121C79.8646 52.9955 80.285 53.777 80.285 55.6407C80.285 73.4362 65.8106 87.9852 47.9727 87.9852C43.1078 87.9852 37.4622 86.903 33.3781 84.9792L26.291 92.3138C32.4171 95.8008 40.5253 97.7847 48.0328 97.7847C71.1559 97.7246 90.0148 78.847 90.0148 55.6407Z" fill="#133C55"/>
<path d="M13.0178 79.0868L20.0448 71.8123C17.282 67.0629 15.6604 61.5319 15.6604 55.6401C15.6604 37.8446 30.1349 23.2956 47.9727 23.2956C50.255 23.2956 53.4983 23.8367 55.6604 24.2575L63.7085 16.442C59.1439 14.6985 53.198 13.4961 47.9727 13.4961C24.7896 13.4961 5.93069 32.3737 5.93069 55.58C5.87063 64.2974 8.51327 72.3534 13.0178 79.0868Z" fill="#133C55"/>
</svg>
