<svg width="50" height="48" viewBox="0 0 50 48" fill="none" xmlns="http://www.w3.org/2000/svg">
<path d="M40.2163 14.9114L39.123 15.9775L37.5932 14.4857C37.3689 14.267 37.0648 14.1442 36.7476 14.1442C36.4305 14.1442 36.1263 14.267 35.902 14.4857C35.6778 14.7044 35.5518 15.001 35.5518 15.3102C35.5518 15.6195 35.6778 15.916 35.902 16.1347L37.4319 17.6276L36.4965 18.5398L34.9655 17.0469C34.7412 16.8282 34.437 16.7053 34.1199 16.7053C33.8027 16.7053 33.4986 16.8282 33.2744 17.0469C33.0501 17.2655 32.9241 17.5621 32.9241 17.8714C32.9241 18.1807 33.0501 18.4772 33.2744 18.6959L34.8042 20.1888L33.8688 21.1009L32.3377 19.608C32.1135 19.3894 31.8094 19.2665 31.4922 19.2665C31.1751 19.2665 30.8709 19.3894 30.6467 19.608C30.4224 19.8267 30.2964 20.1233 30.2964 20.4326C30.2964 20.7418 30.4224 21.0384 30.6467 21.2571L32.1765 22.75L31.2411 23.6621L29.7112 22.1692C29.6003 22.0607 29.4685 21.9746 29.3234 21.9158C29.1783 21.8569 29.0227 21.8265 28.8656 21.8263C28.7084 21.8261 28.5528 21.8561 28.4075 21.9145C28.2622 21.973 28.1302 22.0588 28.0189 22.167C27.9077 22.2752 27.8193 22.4037 27.759 22.5452C27.6987 22.6867 27.6675 22.8383 27.6673 22.9916C27.6671 23.1448 27.6978 23.2966 27.7577 23.4382C27.8177 23.5799 27.9057 23.7086 28.0166 23.8171L29.5465 25.31L27.7712 27.0411L21.4883 20.9145L33.9298 8.7826C34.0493 8.67182 34.2079 8.61003 34.3728 8.61003C34.5377 8.61003 34.6962 8.67182 34.8157 8.7826L40.2128 14.0454C40.3299 14.1601 40.3957 14.3154 40.3957 14.4773C40.3957 14.6392 40.3299 14.7945 40.2128 14.9092L40.2163 14.9114ZM41.4835 11.9829L42.1655 11.3179C42.5166 10.9752 42.7139 10.5106 42.7139 10.0261C42.7139 9.54165 42.5166 9.07701 42.1655 8.7343L41.7242 8.30408L49.0095 1.20019C49.0774 1.13547 49.1314 1.05826 49.1684 0.973044C49.2055 0.887828 49.2249 0.796292 49.2254 0.703732C49.2259 0.611172 49.2076 0.519451 49.1715 0.433837C49.1354 0.348223 49.0823 0.270428 49.0152 0.204977C48.9481 0.139527 48.8683 0.087712 48.7805 0.0525295C48.6927 0.017347 48.5986 -0.000506424 48.5037 1.09302e-05C48.4088 0.000528285 48.3149 0.0194089 48.2275 0.0555462C48.1401 0.0916835 48.0609 0.144353 47.9946 0.210531L40.7094 7.31442L40.2681 6.88419C39.9167 6.54176 39.4402 6.34941 38.9433 6.34941C38.4465 6.34941 37.97 6.54176 37.6186 6.88419L36.9377 7.54808L36.5115 7.13245C35.9459 6.58204 35.1794 6.27289 34.3803 6.27289C33.5812 6.27289 32.8147 6.58204 32.2491 7.13245L19.7833 19.2834C19.375 18.9717 18.8636 18.817 18.3461 18.8487C17.8285 18.8804 17.341 19.0962 16.9759 19.4553C16.5755 19.8462 16.3507 20.3761 16.3507 20.9285C16.3507 21.481 16.5755 22.0108 16.9759 22.4017L19.5459 24.9079L3.75553 40.3052L2.04138 38.6348C1.81712 38.4162 1.51295 38.2933 1.1958 38.2933C0.878654 38.2933 0.574485 38.4162 0.350226 38.6348C0.125968 38.8535 0 39.1501 0 39.4594C0 39.7686 0.125968 40.0652 0.350226 40.2839L7.91191 47.6585C8.02295 47.7668 8.15481 47.8526 8.29989 47.9112C8.44497 47.9698 8.60045 48 8.75748 48C8.91452 48 9.07007 47.9698 9.21515 47.9112C9.36023 47.8526 9.49202 47.7668 9.60306 47.6585C9.7141 47.5502 9.80221 47.4217 9.8623 47.2802C9.9224 47.1387 9.95329 46.9871 9.95329 46.834C9.95329 46.6808 9.9224 46.5292 9.8623 46.3877C9.80221 46.2463 9.7141 46.1177 9.60306 46.0094L7.89004 44.3391L23.6805 28.9417L26.2506 31.4478C26.6329 31.8237 27.1479 32.043 27.6904 32.0612C28.2329 32.0794 28.7621 31.8951 29.17 31.5458C29.5778 31.1965 29.8337 30.7086 29.8852 30.1817C29.9368 29.6548 29.7802 29.1285 29.4474 28.7103L37.3398 21.0145L39.964 18.4555L41.9016 16.5661C42.4667 16.0137 42.7841 15.2654 42.7841 14.4852C42.7841 13.7049 42.4667 12.9566 41.9016 12.4042L41.4754 11.9886L41.4835 11.9829Z" fill="#133C55"/>
<path d="M42.1884 25.4272C42.1033 23.4006 41.7236 21.3961 41.0605 19.4736L37.2716 23.4536C37.4525 24.0985 37.5614 24.7606 37.5965 25.4284C37.5919 29.3447 35.9944 33.0993 33.1545 35.8686C30.3145 38.6379 26.464 40.1955 22.4477 40.2C20.09 40.2011 17.7567 39.7345 15.5898 38.8284L12.249 42.1894C15.3837 43.8271 18.8856 44.6824 22.4419 44.6787C27.6771 44.6745 32.6967 42.645 36.3988 39.0357C40.101 35.4263 42.1832 30.5321 42.1884 25.4272Z" fill="#133C55"/>
<path d="M6.05737 36.1406L9.34631 32.8257C8.00891 30.5815 7.30204 28.0331 7.29698 25.4376C7.29192 22.842 7.98885 20.2911 9.31748 18.042C10.6461 15.7929 12.5595 13.9251 14.8646 12.6272C17.1697 11.3292 19.785 10.6469 22.4469 10.6491C23.6592 10.6908 24.8651 10.8412 26.0492 11.0984L29.8174 7.51838C27.4555 6.666 24.9627 6.21023 22.4446 6.17041C18.8668 6.16882 15.3558 7.11583 12.2875 8.91012C9.21913 10.7044 6.70886 13.2784 5.02526 16.3568C3.34165 19.4351 2.54808 22.9019 2.72948 26.3861C2.91088 29.8704 4.06039 33.241 6.05505 36.1372L6.05737 36.1406Z" fill="#133C55"/>
</svg>
